<svg preserveAspectRatio="xMidYMid" width="84" height="85" viewBox="0 0 84 85" xmlns="http://www.w3.org/2000/svg">
  <path d="M57.1 24.7L81.4 35.8C86.7 28.5 83.6 19.2 74.3 15L42.2 0.399994L10 15C0.799999 19.2 -2.4 28.5 3 35.8L26.9 24.9L42.2 18L57.1 24.7Z" fill-rule="evenodd" fill="#F3BE54"></path>
  <path d="M57.1 49L81.4 60.1C86.7 52.8 83.6 43.5 74.3 39.3L42.2 24.6L10 39.3C0.799999 43.5 -2.4 52.8 3 60.1L26.9 49.2L42.2 42.3L57.1 49Z" fill-rule="evenodd" fill="#53ADD5"></path>
  <path d="M57.1 73.3L81.4 84.4C86.7 77.1 83.6 67.8 74.3 63.6L42.2 48.9L10 63.6C0.799999 67.8 -2.4 77.1 3 84.4L26.9 73.5L42.2 66.6L57.1 73.3Z" fill-rule="evenodd" fill="#ED5557"></path>
</svg>